<svg width="147" height="144" viewBox="0 0 147 144" fill="none" xmlns="http://www.w3.org/2000/svg">
<path d="M146.321 65.614C146.396 64.7843 145.944 63.9547 145.643 63.125C145.342 62.2953 144.739 61.9182 143.911 61.9936C142.856 62.069 142.932 62.9741 142.856 63.6529C142.555 66.8963 142.028 70.1396 142.028 73.3829C142.178 82.7357 137.81 89.6749 130.053 94.125C124.33 97.4438 120.715 101.818 118.606 107.928C117.476 111.171 115.669 114.339 112.43 115.621C108.213 117.281 105.426 120.222 102.489 123.39C97.8952 128.293 92.774 132.668 85.3934 132.14C81.7032 131.838 78.2388 132.592 74.6239 133.045C66.6408 134.025 58.5072 134.252 51.9551 128.293C49.5451 126.106 47.1351 124.446 43.7461 124.371C39.0768 124.22 36.5162 121.731 35.0099 117.13C31.9222 107.702 25.7466 99.8574 19.2698 92.6919C14.7511 87.6384 12.793 82.434 13.0189 76.0982C13.1696 72.9303 13.3955 69.8379 12.4918 66.7454C11.7386 64.1055 12.4918 61.7673 13.9227 59.2782C17.0858 54.0738 20.776 49.0957 22.9601 43.2879C26.0479 35.1419 30.9431 29.1079 40.2818 27.4485C44.9511 26.6188 48.7167 23.6018 52.0304 20.283C59.2603 13.193 67.8458 9.34626 77.9376 9.19541C83.6613 9.11998 89.4603 10.0251 95.0333 8.06402C95.4852 7.91317 96.0124 8.06403 96.5396 8.13945C107.083 10.0251 115.443 15.7575 122.597 23.4509C125.083 26.1662 126.965 29.6358 126.89 33.2563C126.664 44.1176 131.409 55.0544 126.89 65.9157C126.514 66.8963 126.589 68.1785 126.664 69.3099C126.89 74.5897 124.706 78.7381 120.715 82.1323C115.367 86.6579 110.322 91.636 104.899 96.0861C96.4643 103.025 87.8787 109.512 76.1301 109.889C68.2977 110.115 62.1975 106.947 56.775 101.969C54.8922 100.235 53.3107 98.0472 51.1266 96.6141C48.2648 94.8039 46.6833 91.9377 47.2857 88.9206C49.1685 78.5873 50.2229 67.9522 59.185 60.1834C64.6074 55.507 67.3186 48.8695 66.0383 41.2514C65.5112 38.0835 65.8877 34.7648 64.3062 31.6723C63.5531 30.3147 64.3062 28.6553 65.6618 27.6748C66.6408 26.9959 67.8458 26.7697 68.8249 27.5993C70.1052 28.6553 70.4064 29.9375 69.8792 31.5969C69.2014 33.7843 69.2767 36.1225 69.8792 38.3098C70.783 41.6286 72.8164 42.4583 75.8289 40.7989C77.4857 39.8938 79.0673 38.687 80.7994 38.2344C85.3934 36.8767 87.5775 33.1809 87.8034 29.3341C87.954 25.5628 90.2134 25.1103 92.3974 23.9789C93.4518 23.4509 94.958 22.9229 95.7865 24.2806C96.5396 25.5628 95.6358 26.9205 94.6568 27.5993C89.9121 30.6164 89.7615 35.7453 88.6318 40.4217C87.5775 45.0982 89.385 48.1906 93.4518 49.1712C96.6902 50.0009 100.757 47.4364 102.037 43.6651C102.489 42.3074 102.941 40.9497 104.749 41.176C106.857 41.4777 109.041 44.8719 108.815 47.2855C108.665 49.0957 107.61 49.7746 106.029 49.3974C104.071 48.9449 102.79 49.9254 101.887 51.2831C100.23 53.5459 97.2174 56.1104 99.1002 58.8257C100.983 61.4656 104.297 59.7308 106.933 58.5994C108.062 58.1469 109.192 57.1663 110.322 58.3731C111.677 59.7308 111.376 61.4656 110.623 62.8987C110.02 64.1809 108.74 65.4632 107.309 64.7843C103.769 63.2004 100.682 65.1615 97.4433 65.5386C94.4308 65.8403 91.7196 67.2734 91.0418 70.5167C90.4393 73.6092 93.0752 75.1177 94.7321 77.0788C95.4852 77.9085 96.4643 77.9839 97.4433 78.1347C98.7236 78.2856 98.8742 79.3415 98.9495 80.3975C99.0249 81.7552 98.4224 82.8111 97.2927 83.5654C96.4642 84.0934 95.6358 84.1688 94.8827 83.4145C89.9121 78.6627 83.36 76.4754 77.561 73.1566C71.762 69.9133 66.6408 70.9693 61.8962 75.7211C60.4653 77.1542 59.2603 78.7381 58.2059 80.4729C53.3107 88.1664 57.7541 97.8209 66.7162 99.254C69.6533 99.7066 72.5905 100.612 75.5276 100.989C79.2932 101.517 83.2094 103.252 86.8997 100.838C92.6234 97.2175 98.7236 94.125 103.092 88.6944C105.577 85.6773 108.439 83.0374 111.527 80.6238C116.949 76.3245 121.468 71.3464 121.166 63.7284C120.79 53.9984 123.125 44.4193 120.715 34.5385C117.928 22.6967 102.489 12.665 90.9665 15.1541C87.4269 15.9083 83.8119 15.8329 80.1969 15.2295C70.8583 13.721 63.2518 17.4168 57.2269 24.2806C54.8169 26.9959 52.5576 29.3341 49.0932 30.541C39.2274 34.0106 33.1271 40.4972 32.5247 51.4339C32.2987 55.9595 30.5666 59.8816 27.1022 63.125C24.4663 65.5386 23.6379 68.7065 23.8638 72.3269C24.2404 79.7187 28.006 85.9036 30.8678 92.3902C32.2987 95.709 34.5581 98.2735 37.3446 100.536C40.8089 103.402 45.3276 105.213 47.7376 109.059C49.9217 112.529 52.7835 114.49 56.3985 115.772C60.39 117.205 64.4568 118.563 68.5236 119.845C69.8792 120.298 71.3855 120.524 72.5905 119.77C76.8832 117.13 81.4019 117.356 86.0713 118.337C87.3515 118.638 88.5565 118.186 89.7615 117.884C96.3889 116.074 101.36 112.303 105.125 106.57C109.568 99.8574 115.367 94.5022 122.296 90.58C128.321 87.1858 133.819 83.5654 134.723 75.7211C134.949 73.3075 135.024 70.9693 135.174 68.6311C135.476 61.8427 136.455 55.1298 138.187 48.6432C139.543 43.5896 139.543 39.0641 137.283 34.4631C134.497 28.8816 131.559 23.3001 128.698 17.7185C127.267 14.8524 125.083 12.8913 121.995 12.0616C118.606 11.0811 116.196 8.96913 113.937 6.32922C110.171 2.02994 105.426 -0.836242 99.4014 0.219721C91.9455 1.50196 84.4144 1.35111 77.561 2.40707C73.1176 1.72824 69.5027 2.78421 66.1137 4.59443C59.185 8.36573 51.2773 9.79882 44.9511 14.8524C42.0892 17.1151 38.6249 18.2465 34.784 18.2465C33.1271 18.2465 31.6962 19.2271 30.4912 20.4339C28.6838 22.2441 26.575 23.4509 24.1651 24.4314C20.0229 26.0154 17.2364 29.0324 16.5586 33.4826C15.8055 38.7624 13.0942 42.4583 8.95211 45.8524C2.4753 51.1322 -2.41995 57.0909 1.27032 66.9717C3.68029 73.3829 3.90623 80.6992 4.73466 87.7138C5.0359 90.58 5.56308 93.1445 7.37056 95.4073C10.0065 98.726 11.7386 102.346 11.814 106.721C11.8893 109.135 13.3955 110.945 15.1277 112.454C16.9351 113.962 18.8179 115.471 20.7007 116.904C22.3576 118.186 23.5626 119.694 23.8638 121.806C24.7676 128.142 28.8344 131.612 34.5581 132.969C41.7127 134.629 48.4154 137.193 54.9675 140.437C58.4319 142.171 62.0468 142.624 65.8877 142.473C73.3436 142.171 80.5735 140.738 88.18 142.775C95.3346 144.66 98.9495 142.247 102.715 135.534C103.769 133.648 105.276 132.291 107.234 131.687C112.43 130.028 115.518 126.332 118.154 121.957C120.187 118.563 122.522 115.546 126.062 113.585C127.945 112.604 128.924 110.87 129.074 108.682C129.3 105.967 130.43 103.855 132.689 101.969C139.618 96.3124 143.007 88.0155 145.869 80.0204C147.3 75.8719 145.643 70.5167 146.321 65.614ZM77.1845 18.6237C82.0797 20.283 86.6737 19.9813 91.4937 18.5482C92.6234 18.1711 93.979 18.4728 95.184 18.3974C103.694 18.0957 114.087 25.6383 116.874 34.2368C118.455 39.2904 119.284 44.4193 118.38 49.7746C117.702 53.8476 117.702 57.996 117.627 62.1444C117.552 67.0471 116.347 71.271 112.506 74.5897C107.686 78.8136 103.468 83.6408 99.2508 88.3927C95.9371 92.164 91.6443 94.4267 87.1256 96.4632C83.4353 98.1226 79.971 96.7649 76.582 95.5581C73.4942 94.5022 70.4817 93.597 67.0927 93.4462C62.7999 93.2199 60.6159 89.2223 61.7456 84.9985C63.4024 78.9644 74.0967 73.9109 79.3685 77.833C83.5107 80.9255 88.6318 82.2077 92.3974 85.8282C94.0543 87.4121 96.0124 87.2613 97.9705 86.2053C101.585 84.2442 102.489 80.9255 102.339 77.305C102.188 73.9863 100.155 71.8744 96.2383 71.1955C99.1755 68.7819 102.113 68.7065 105.2 68.7819C112.732 69.0082 117.1 63.9546 113.786 57.6189C111.978 54.1493 111.978 51.7356 112.581 48.3415C113.485 43.3634 112.054 38.6115 109.041 34.4631C107.61 32.4266 105.803 30.7672 103.242 30.9181C100.531 31.1444 99.9286 33.6334 98.8742 35.5945C98.4224 36.4996 98.4224 37.5556 98.0458 38.4607C97.5186 39.7429 96.163 39.7429 95.1087 39.5921C93.8284 39.3658 94.4308 38.159 94.5815 37.4047C95.1087 34.9911 95.6358 32.6529 97.5186 30.6164C100.757 26.9959 100.531 22.6212 97.4433 19.6796C91.9456 18.6991 87.8034 21.5653 83.9625 24.8086C83.4353 25.2611 82.6822 26.0908 82.7575 26.6188C83.5107 30.7672 80.4982 31.5215 77.787 32.8792C76.356 33.558 75.3017 34.8402 73.7954 35.9716C73.1176 34.6894 72.7411 33.4826 72.967 32.0495C73.9461 25.7137 71.6867 22.9229 65.3605 22.6212C67.7705 19.9813 73.6448 17.3414 77.1845 18.6237ZM35.5371 91.7114C34.4074 88.9206 33.6543 85.979 32.9765 83.1128C32.4493 80.7746 31.6962 78.5873 30.3406 76.5508C28.0813 73.0812 28.5331 70.6676 31.2444 67.4997C34.8593 63.2004 36.5915 57.9206 36.6668 52.5653C36.8174 41.9303 42.9177 36.2733 51.8798 33.03C56.0219 31.5215 57.9047 27.9765 61.0678 25.3366C58.5825 31.8232 62.1975 37.5556 62.574 43.5896C62.9506 49.6992 60.6159 55.2052 55.2688 58.2977C50.2982 61.0885 47.8129 64.9352 46.8339 70.2904C46.0808 74.5897 44.1227 78.5873 43.1436 82.8866C41.4867 89.9012 41.1855 96.3878 48.0389 101.215C42.5411 99.782 37.8718 97.2175 35.5371 91.7114Z" fill="white"/>
</svg>
