<?xml version="1.0" encoding="UTF-8" standalone="no"?>
<svg
   width="259.50516"
   height="111.46445"
   viewBox="0 0 259.50516 111.46445"
   fill="none"
   version="1.1"
   id="svg5"
   xmlns="http://www.w3.org/2000/svg"
   xmlns:svg="http://www.w3.org/2000/svg">
  <defs
     id="defs5" />
  <path
     d="M 259.50516,10.20943 135.85712,19.300025 -2.4670303e-7,5.9518146e-7 32.86867,111.46444 135.85712,93.003505 245.10564,82.933945 V 42.376182 Z"
     fill="#ffffff"
     id="path1"
     style="stroke-width:0.999632" />
  <path
     d="M 245.47596,17.929847 135.62592,25.500359 14.93001,9.4276286 44.13042,102.25345 l 91.4955,-15.373945 97.05737,-8.3855 V 44.717732 Z"
     fill="#000000"
     id="path2"
     style="stroke-width:1.04105" />
  <path
     d="m 229.83576,26.162479 -96.51654,5.968793 -106.04654,-12.672254 25.65756,73.186837 80.38898,-12.12102 85.27671,-6.61201 V 47.282947 Z"
     fill="#ffffff"
     id="path3"
     style="stroke-width:1.11986" />
  <path
     d="m 80.633521,74.588225 c -0.16,0.064 -0.288,0.048 -0.384,-0.048 -0.352,-0.16 -0.576,-0.432 -0.672,-0.816 v -0.096 c -0.032,-0.288004 -0.064,-0.576004 -0.096,-0.864004 -0.032,-0.288 -0.064,-0.56 -0.096,-0.816 0,-0.064 -0.016,-0.144 -0.048,-0.24 0,-0.064 0,-0.128 0,-0.192 -0.032,-0.096 -0.048,-0.192 -0.048,-0.288 0,-0.096 0,-0.192 0,-0.288 0,-0.256 -0.032,-0.48 -0.096,-0.672 -0.064,-0.192 -0.128,-0.384 -0.192,-0.576 -0.064,-0.128 -0.128,-0.208 -0.192,-0.24 -0.128,-0.16 -0.224,-0.336 -0.288,-0.528 -0.064,-0.16 -0.144,-0.336 -0.24,-0.528 v -0.048 c -0.16,-0.448 -0.256,-0.736 -0.288,-0.864 -0.032,-0.16 -0.048,-0.464 -0.048,-0.912 v -0.624 c 0,-0.32 0.096,-0.576 0.288,-0.768 0.032,-0.064 0.064,-0.128 0.096,-0.192 0.064,-0.064 0.112,-0.128 0.144,-0.192 0.064,-0.192 0.064,-0.336 0,-0.432 -0.128,-0.256 -0.224,-0.512 -0.288,-0.768 -0.064,-0.288 -0.128,-0.576 -0.192,-0.864 v -0.528 c 0.032,-0.192 0.048,-0.368 0.048,-0.528 0.032,-0.192 0.064,-0.384 0.096,-0.576 0.064,-0.288 0.064,-0.608 0,-0.96 -0.064,-0.192 -0.096,-0.336 -0.096,-0.432 -0.032,-0.096 -0.064,-0.192 -0.096,-0.288 0,-0.096 0,-0.192 0,-0.288 0,-0.384 -0.048,-0.736 -0.144,-1.056 -0.064,-0.192 -0.096,-0.352 -0.096,-0.48 0,-0.512 -0.032,-1.008 -0.096,-1.488 -0.064,-0.512 -0.128,-1.024 -0.192,-1.536 0,-0.064 -0.016,-0.096 -0.048,-0.096 0,-0.032 0,-0.064 0,-0.096 0,-0.256 -0.032,-0.512 -0.096,-0.768 -0.064,-0.288 -0.128,-0.544 -0.192,-0.768 -0.032,-0.064 -0.048,-0.144 -0.048,-0.24 0,-0.096 -0.016,-0.176 -0.048,-0.24 -0.032,-0.224 -0.064,-0.432 -0.096,-0.624 0,-0.192 -0.032,-0.4 -0.096,-0.624 v -0.192 c -0.032,-0.352 -0.096,-0.688 -0.192,-1.008 -0.064,-0.32 -0.128,-0.64 -0.192,-0.96 0,-0.128 -0.016,-0.256 -0.048,-0.384 0,-0.128 -0.016,-0.256 -0.048,-0.384 l -0.144,-0.528 c -0.032,-0.128 -0.064,-0.256 -0.096,-0.384 0,-0.16 -0.016,-0.304 -0.048,-0.432 -0.032,-0.224 -0.048,-0.432 -0.048,-0.624 0,-0.224 -0.016,-0.448 -0.048,-0.672 -0.032,-0.224 -0.064,-0.432 -0.096,-0.624 0,-0.192 -0.032,-0.384 -0.096,-0.576 -0.032,-0.256 -0.064,-0.512 -0.096,-0.768 0,-0.288 -0.032,-0.56 -0.096,-0.816 -0.096,-0.512 -0.288,-0.976 -0.576,-1.392 -0.608,-0.896 -0.864,-1.904 -0.768,-3.024 0.064,-0.352 0.208,-0.672 0.432,-0.96 0.032,-0.064 0.112,-0.16 0.24,-0.288 0.224,-0.288 0.48,-0.496 0.768,-0.624 0.32,-0.16 0.656,-0.256 1.008,-0.288 0.544,-0.096 1.04,-0.24 1.488,-0.432 0.864,-0.256 1.728,-0.448 2.592,-0.576 0.576,-0.096 1.152,-0.144 1.728,-0.144 h 0.48 c 0.256,-0.064 0.512,-0.096 0.768,-0.096 0.288,0 0.56,0 0.816,0 h 0.432 c 0.192,0 0.352,-0.064 0.48,-0.192 l 0.576,-0.336 c 0.096,-0.064 0.192,-0.064 0.288,0 0.096,0.064 0.192,0.112 0.288,0.144 0.128,0.032 0.24,0.08 0.336,0.144 0.16,0.064 0.304,0.128 0.432,0.192 0.128,0.064 0.256,0.128 0.384,0.192 0.064,0.064 0.144,0.112 0.24,0.144 0.096,0.032 0.192,0.064 0.288,0.096 l 0.912,0.192 c 0.256,0.032 0.48,0.096 0.672,0.192 0.224,0.064 0.448,0.144 0.672,0.24 0.256,0.096 0.48,0.24 0.672,0.432 0.192,0.16 0.384,0.352 0.576,0.576 0.448,0.416 0.736,0.944 0.864,1.584 0.032,0.256 0.112,0.56 0.24,0.912 0.064,0.224 0.096,0.448 0.096,0.672 0,0.224 0.016,0.464 0.048,0.72 0,0 0,0.08 0,0.24 -0.032,0.352 -0.08,0.72 -0.144,1.104 -0.064,0.352 -0.144,0.704 -0.24,1.056 -0.096,0.32 -0.208,0.656 -0.336,1.008 -0.096,0.352 -0.224,0.688 -0.384,1.008 -0.192,0.48 -0.464,0.944 -0.816,1.392 -0.224,0.288 -0.448,0.592 -0.672,0.912 -0.192,0.288 -0.416,0.576 -0.672,0.864 -0.128,0.128 -0.256,0.272 -0.384,0.432 -0.128,0.128 -0.256,0.256 -0.384,0.384 l -0.576,0.576 v 0.096 c 0,0.064 0.032,0.096 0.096,0.096 h 0.72 c 0.448,0.032 0.896,0.096 1.344,0.192 0.448,0.064 0.88,0.16 1.296,0.288 0.096,0.032 0.176,0.064 0.24,0.096 0.096,0.032 0.192,0.08 0.288,0.144 l 0.576,0.336 c 0.192,0.128 0.368,0.256 0.528,0.384 0.16,0.128 0.272,0.32 0.336,0.576 0.064,0.16 0.144,0.32 0.24,0.48 0.16,0.288 0.304,0.592 0.432,0.912 0.128,0.288 0.256,0.592 0.384,0.912 0.064,0.128 0.112,0.256 0.144,0.384 0.064,0.096 0.112,0.208 0.144,0.336 0.16,0.448 0.32,0.896 0.48,1.344 0.16,0.448 0.288,0.912 0.384,1.392 l 0.144,1.2 c 0.064,0.192 0.064,0.4 0,0.624 -0.032,0.192 -0.064,0.384 -0.096,0.576 -0.032,0.16 -0.064,0.336 -0.096,0.528 -0.096,0.416 -0.24,0.816 -0.432,1.2 -0.096,0.192 -0.224,0.368 -0.384,0.528 -0.416,0.512 -0.848,0.912 -1.296,1.2 -0.224,0.128 -0.448,0.272 -0.672,0.432 -0.192,0.16 -0.416,0.32 -0.672,0.48 -0.48,0.288 -1.024,0.592 -1.632,0.912 -0.16,0.064 -0.336,0.144 -0.528,0.24 -0.16,0.096 -0.32,0.176 -0.48,0.24 -0.512,0.224 -1.008,0.448 -1.488,0.672 -0.48,0.224 -0.96,0.432 -1.44,0.624 -0.512,0.192 -1.008,0.384 -1.488,0.576 -0.48,0.192 -0.992,0.368 -1.536,0.528 -0.128,0.032 -0.256,0.064 -0.384,0.096 -0.096,0.032 -0.208,0.064 -0.336,0.096 -0.576,0.096 -1.04,0.4 -1.392,0.912 -0.128,0.128 -0.192,0.288 -0.192,0.48 -0.032,0.128 -0.064,0.24 -0.096,0.336 0,0.128 0,0.256 0,0.384 -0.032,0.096 -0.048,0.224 -0.048,0.384 v 1.68 c 0,0.16 0,0.32 0,0.48 0,0.192 -0.032,0.368 -0.096,0.528004 -0.064,0.352 -0.32,0.64 -0.768,0.864 z m 1.104,-25.200004 c 0.032,0.032 0.048,0.048 0.048,0.048 0,-0.032 0.016,-0.048 0.048,-0.048 0.032,-0.032 0.048,-0.048 0.048,-0.048 0.032,0 0.048,0 0.048,0 0.16,0.032 0.32,0 0.48,-0.096 0.16,-0.128 0.32,-0.24 0.48,-0.336 0.192,-0.128 0.384,-0.256 0.576,-0.384 0.288,-0.192 0.56,-0.4 0.816,-0.624 0.288,-0.256 0.56,-0.512 0.816,-0.768 0.384,-0.416 0.752,-0.832 1.104,-1.248 0.352,-0.448 0.672,-0.912 0.96,-1.392 0.16,-0.288 0.32,-0.56 0.48,-0.816 0.16,-0.288 0.304,-0.592 0.432,-0.912 0.16,-0.416 0.272,-0.896 0.336,-1.44 0.064,-0.32 0.048,-0.608 -0.048,-0.864 -0.096,-0.256 -0.24,-0.432 -0.432,-0.528 -0.576,-0.256 -1.12,-0.384 -1.632,-0.384 -0.32,0 -0.624,0 -0.912,0 -0.288,0 -0.576,0.016 -0.864,0.048 -0.256,0.032 -0.512,0.064 -0.768,0.096 -0.256,0.032 -0.512,0.08 -0.768,0.144 -0.224,0.064 -0.464,0.144 -0.72,0.24 -0.224,0.064 -0.464,0.128 -0.72,0.192 -0.352,0.096 -0.576,0.304 -0.672,0.624 -0.064,0.096 -0.096,0.24 -0.096,0.432 v 0.768 c -0.032,0.32 -0.032,0.64 0,0.96 0.032,0.32 0.064,0.64 0.096,0.96 l 0.048,0.048 c -0.032,0.224 -0.032,0.448 0,0.672 0.064,0.224 0.112,0.464 0.144,0.72 0,0.096 0.048,0.176 0.144,0.24 0.128,0.064 0.144,0.192 0.048,0.384 0,0 -0.016,0.016 -0.048,0.048 0,0 0.016,0.016 0.048,0.048 0.064,0.032 0.08,0.096 0.048,0.192 -0.032,0.064 -0.048,0.128 -0.048,0.192 0,0.256 0.016,0.432 0.048,0.528 0.032,0.064 0.048,0.144 0.048,0.24 0,0.128 0.016,0.272 0.048,0.432 0.032,0.128 0.064,0.256 0.096,0.384 0,0.064 0.032,0.08 0.096,0.048 0.032,-0.032 0.08,-0.048 0.144,-0.048 0.032,0 0.048,0.048 0.048,0.144 v 0.144 c -0.16,0.224 -0.192,0.464 -0.096,0.72 v 0.192 c 0.032,0 0.048,0.016 0.048,0.048 z m 0.864,14.64 c 0.096,0 0.192,0 0.288,0 0.096,0 0.208,-0.016 0.336,-0.048 0.576,-0.096 1.184,-0.272 1.824,-0.528 l 1.872,-0.864 c 0.512,-0.256 1.008,-0.496 1.488,-0.72 0.48,-0.256 0.976,-0.496 1.488,-0.72 0.544,-0.288 1.04,-0.672 1.488,-1.152 0.288,-0.288 0.432,-0.64 0.432,-1.056 v -0.24 c -0.032,-0.064 -0.048,-0.112 -0.048,-0.144 0,-0.064 -0.016,-0.128 -0.048,-0.192 -0.096,-0.512 -0.24,-0.992 -0.432,-1.44 -0.16,-0.48 -0.336,-0.96 -0.528,-1.44 -0.032,-0.128 -0.08,-0.24 -0.144,-0.336 -0.064,-0.128 -0.128,-0.256 -0.192,-0.384 -0.096,-0.192 -0.224,-0.304 -0.384,-0.336 -0.288,-0.096 -0.56,-0.144 -0.816,-0.144 h -0.768 c -0.864,-0.032 -1.744,0.016 -2.64,0.144 -0.896,0.128 -1.808,0.32 -2.736,0.576 l -0.336,0.144 c -0.032,0.032 -0.064,0.048 -0.096,0.048 0,0 -0.016,0.016 -0.048,0.048 -0.096,0.096 -0.112,0.192 -0.048,0.288 l 0.096,0.096 c 0.096,0.096 0.112,0.192 0.048,0.288 -0.064,0.096 -0.096,0.224 -0.096,0.384 0,0.128 0,0.256 0,0.384 0,0.096 0.016,0.208 0.048,0.336 0.032,0.128 0.048,0.256 0.048,0.384 0,0.128 0,0.256 0,0.384 v 0.576 c 0,0.32 0.064,0.56 0.192,0.72 0.064,0.128 0.096,0.256 0.096,0.384 0.032,0.128 0.048,0.256 0.048,0.384 0,0.16 -0.048,0.336 -0.144,0.528 -0.096,0.16 -0.112,0.352 -0.048,0.576 0.032,0.064 0.08,0.128 0.144,0.192 0.064,0.224 0.032,0.4 -0.096,0.528 -0.096,0.16 -0.128,0.304 -0.096,0.432 0,0.192 -0.016,0.336 -0.048,0.432 -0.032,0.064 -0.08,0.144 -0.144,0.24 -0.032,0.096 -0.096,0.176 -0.192,0.24 -0.16,0.128 -0.272,0.32 -0.336,0.576 -0.064,0.128 -0.096,0.24 -0.096,0.336 0,0.064 0.112,0.08 0.336,0.048 0.064,0 0.112,0.016 0.144,0.048 0.064,0 0.112,0 0.144,0 z m 44.397399,7.488 c -0.288,0 -0.544,-0.112 -0.768,-0.336 -0.064,-0.096 -0.128,-0.192 -0.192,-0.288 -0.064,-0.096 -0.128,-0.192 -0.192,-0.288 -0.288,-0.672 -0.432,-1.376 -0.432,-2.112 l -0.144,-1.152 c -0.096,-0.448 -0.176,-0.896 -0.24,-1.344 -0.064,-0.448 -0.176,-0.88 -0.336,-1.296 l -0.288,-0.816 c 0,-0.064 -0.016,-0.128 -0.048,-0.192 0,-0.064 -0.016,-0.128 -0.048,-0.192 l -0.72,-2.544 c -0.032,-0.064 -0.064,-0.144 -0.096,-0.24 0,-0.096 -0.032,-0.176 -0.096,-0.24 -0.096,-0.192 -0.176,-0.384 -0.24,-0.576 -0.032,-0.224 -0.08,-0.448 -0.144,-0.672 -0.032,-0.16 -0.064,-0.304 -0.096,-0.432 -0.032,-0.16 -0.08,-0.32 -0.144,-0.48 -0.064,-0.192 -0.128,-0.304 -0.192,-0.336 -0.064,-0.064 -0.208,-0.064 -0.432,0 -0.16,0.032 -0.336,0.064 -0.528,0.096 -0.16,0 -0.32,0.032 -0.48,0.096 -0.128,0.032 -0.288,0.064 -0.48,0.096 -0.16,0 -0.32,0.016 -0.48,0.048 l -0.672,0.144 c -0.16,0.032 -0.336,0.08 -0.528,0.144 -0.16,0.032 -0.32,0.048 -0.48,0.048 l -0.864,0.144 c -0.256,0.064 -0.528,0.128 -0.816,0.192 -0.288,0.064 -0.56,0.128 -0.816,0.192 -0.768,0.192 -1.536,0.336 -2.304,0.432 -0.256,0.064 -0.4,0.176 -0.432,0.336 -0.032,0 -0.048,0.016 -0.048,0.048 -0.192,0.512 -0.416,1.024 -0.672,1.536 -0.224,0.48 -0.464,0.976 -0.72,1.488 -0.064,0.128 -0.128,0.256 -0.192,0.384 -0.032,0.096 -0.08,0.208 -0.144,0.336 -0.032,0.064 -0.064,0.144 -0.096,0.24 -0.032,0.064 -0.064,0.128 -0.096,0.192 -0.192,0.224 -0.288,0.496 -0.288,0.816 -0.032,0.192 -0.096,0.384 -0.192,0.576 -0.096,0.16 -0.192,0.32 -0.288,0.48 -0.032,0.096 -0.096,0.144 -0.192,0.144 -0.128,0.032 -0.256,0.08 -0.384,0.144 -0.128,0.064 -0.272,0.128 -0.432,0.192 -0.096,0.032 -0.192,0.032 -0.288,0 -0.064,-0.032 -0.144,-0.064 -0.24,-0.096 -0.064,-0.064 -0.128,-0.096 -0.192,-0.096 -0.352,-0.032 -0.608,-0.24 -0.768,-0.624 -0.256,-0.512 -0.432,-1.024 -0.528,-1.536 -0.032,-0.128 -0.032,-0.24 0,-0.336 0.064,-0.096 0.112,-0.192 0.144,-0.288 0.192,-0.128 0.304,-0.272 0.336,-0.432 v -0.048 c 0,-0.416 0.08,-0.8 0.24,-1.152 0.192,-0.384 0.352,-0.752 0.48,-1.104 0.064,-0.192 0.144,-0.384 0.24,-0.576 0.096,-0.192 0.192,-0.384 0.288,-0.576 0.128,-0.224 0.224,-0.432 0.288,-0.624 0.096,-0.224 0.176,-0.448 0.24,-0.672 0.096,-0.256 0.096,-0.496 0,-0.72 -0.064,-0.192 -0.096,-0.368 -0.096,-0.528 0,-0.192 0.016,-0.384 0.048,-0.576 0,-0.352 0.128,-0.656 0.384,-0.912 0.128,-0.16 0.256,-0.288 0.384,-0.384 0.16,-0.128 0.304,-0.256 0.432,-0.384 0.288,-0.288 0.512,-0.672 0.672,-1.152 0.128,-0.416 0.224,-0.832 0.288,-1.248 0.096,-0.448 0.192,-0.88 0.288,-1.296 0.064,-0.416 0.128,-0.816 0.192,-1.2 0.096,-0.416 0.192,-0.816 0.288,-1.2 0.032,-0.16 0.064,-0.304 0.096,-0.432 0.064,-0.16 0.112,-0.304 0.144,-0.432 0.096,-0.256 0.192,-0.496 0.288,-0.72 0.096,-0.256 0.16,-0.512 0.192,-0.768 0.064,-0.128 0.064,-0.24 0,-0.336 -0.032,-0.16 -0.032,-0.304 0,-0.432 0.064,-0.128 0.112,-0.256 0.144,-0.384 0.096,-0.224 0.16,-0.448 0.192,-0.672 0.064,-0.224 0.144,-0.448 0.24,-0.672 0.16,-0.416 0.288,-0.752 0.384,-1.008 0.128,-0.288 0.24,-0.608 0.336,-0.96 0.064,-0.192 0.128,-0.368 0.192,-0.528 0.096,-0.192 0.16,-0.384 0.192,-0.576 0.096,-0.288 0.176,-0.576 0.24,-0.864 0.064,-0.32 0.096,-0.624 0.096,-0.912 0.064,-0.256 0.128,-0.432 0.192,-0.528 0.16,-0.32 0.352,-0.592 0.576,-0.816 0.256,-0.224 0.496,-0.448 0.72,-0.672 0.16,-0.096 0.32,-0.16 0.48,-0.192 0.16,-0.064 0.32,-0.048 0.48,0.048 0.128,0.064 0.208,0.096 0.24,0.096 0.288,-0.032 0.528,0.032 0.72,0.192 0.192,0.16 0.352,0.352 0.48,0.576 0.064,0.064 0.112,0.144 0.144,0.24 0.032,0.096 0.064,0.176 0.096,0.24 0.16,0.256 0.24,0.512 0.24,0.768 0,0.128 0.016,0.272 0.048,0.432 0.032,0.128 0.064,0.272 0.096,0.432 0.096,0.192 0.24,0.288 0.432,0.288 0.032,-0.032 0.064,-0.032 0.096,0 0.032,0.032 0.048,0.064 0.048,0.096 0.16,0.192 0.208,0.4 0.144,0.624 -0.064,0.256 -0.08,0.512 -0.048,0.768 0.064,0.224 0.128,0.464 0.192,0.72 0.128,0.32 0.256,0.64 0.384,0.96 0.128,0.32 0.256,0.64 0.384,0.96 0.16,0.352 0.32,0.704 0.48,1.056 0.16,0.352 0.304,0.704 0.432,1.056 0.16,0.448 0.32,0.896 0.48,1.344 0.192,0.448 0.4,0.896 0.624,1.344 l 0.144,0.528 c 0.032,0.128 0.064,0.256 0.096,0.384 0.064,0.128 0.112,0.256 0.144,0.384 0.064,0.096 0.112,0.192 0.144,0.288 0.064,0.096 0.128,0.176 0.192,0.24 0.16,0.224 0.256,0.464 0.288,0.72 0.096,0.32 0.24,0.608 0.432,0.864 0.064,0.096 0.16,0.144 0.288,0.144 0.48,-0.064 0.96,-0.112 1.44,-0.144 0.48,-0.064 0.96,-0.16 1.44,-0.288 0.352,-0.096 0.688,-0.144 1.008,-0.144 0.608,0 1.168,0.208 1.68,0.624 0.608,0.48 0.928,1.088 0.96,1.824 0,0.16 0.016,0.288 0.048,0.384 0,0.224 -0.064,0.4 -0.192,0.528 -0.032,0.096 -0.096,0.192 -0.192,0.288 -0.064,0.096 -0.128,0.192 -0.192,0.288 -0.064,0.128 -0.128,0.224 -0.192,0.288 l -0.288,0.24 c -0.032,0.064 -0.08,0.144 -0.144,0.24 -0.064,0.064 -0.144,0.112 -0.24,0.144 -0.128,0.032 -0.256,0.08 -0.384,0.144 -0.128,0.032 -0.272,0.048 -0.432,0.048 -0.576,0.064 -1.088,0.048 -1.536,-0.048 h -0.768 c -0.064,0 -0.16,0.032 -0.288,0.096 -0.128,0.064 -0.192,0.144 -0.192,0.24 v 0.192 c 0.096,0.288 0.16,0.592 0.192,0.912 0.064,0.288 0.16,0.56 0.288,0.816 0,0.128 0.032,0.256 0.096,0.384 0.16,0.288 0.288,0.592 0.384,0.912 0.096,0.288 0.176,0.592 0.24,0.912 0,0.064 0.032,0.192 0.096,0.384 0.096,0.224 0.176,0.464 0.24,0.72 0.064,0.224 0.112,0.464 0.144,0.72 0,0.192 0.048,0.368 0.144,0.528 0.128,0.288 0.224,0.576 0.288,0.864 0.064,0.288 0.112,0.592 0.144,0.912 0.032,0.032 0.048,0.096 0.048,0.192 0,0.064 0.016,0.128 0.048,0.192 0.16,0.352 0.272,0.736 0.336,1.152 0.064,0.384 0.144,0.768 0.24,1.152 0.064,0.192 0.096,0.384 0.096,0.576 0.032,0.224 0.048,0.448 0.048,0.672 0,0.16 -0.048,0.336 -0.144,0.528 -0.096,0.096 -0.144,0.144 -0.144,0.144 -0.192,0.032 -0.304,0.144 -0.336,0.336 l -0.144,0.288 c -0.064,0.128 -0.16,0.208 -0.288,0.24 -0.128,0 -0.24,0.048 -0.336,0.144 -0.128,0.128 -0.304,0.192 -0.528,0.192 -0.128,0 -0.288,0 -0.48,0 -0.16,0 -0.32,0.016 -0.48,0.048 z m -11.568,-17.424 c 0.192,-0.032 0.384,-0.064 0.576,-0.096 0.224,-0.032 0.464,-0.064 0.72,-0.096 0.16,-0.032 0.368,-0.064 0.624,-0.096 0.256,-0.032 0.496,-0.064 0.72,-0.096 0.224,-0.064 0.448,-0.096 0.672,-0.096 0.224,-0.032 0.448,-0.064 0.672,-0.096 0.192,-0.064 0.384,-0.096 0.576,-0.096 0.192,-0.032 0.384,-0.064 0.576,-0.096 0.288,-0.064 0.4,-0.224 0.336,-0.48 -0.032,-0.256 -0.096,-0.512 -0.192,-0.768 -0.064,-0.288 -0.208,-0.528 -0.432,-0.72 -0.064,-0.064 -0.096,-0.16 -0.096,-0.288 v -0.144 c -0.064,-0.256 -0.144,-0.496 -0.24,-0.72 -0.064,-0.256 -0.144,-0.496 -0.24,-0.72 -0.064,-0.256 -0.144,-0.48 -0.24,-0.672 -0.064,-0.224 -0.144,-0.448 -0.24,-0.672 l -0.576,-1.728 c -0.096,-0.224 -0.192,-0.448 -0.288,-0.672 -0.064,-0.224 -0.128,-0.448 -0.192,-0.672 l -0.144,-0.192 h -0.144 l -0.096,0.144 c -0.16,0.48 -0.352,0.96 -0.576,1.44 -0.192,0.48 -0.368,0.992 -0.528,1.536 0,0.064 -0.016,0.144 -0.048,0.24 -0.032,0.096 -0.064,0.192 -0.096,0.288 -0.128,0.32 -0.256,0.672 -0.384,1.056 -0.096,0.384 -0.176,0.768 -0.24,1.152 -0.032,0.224 -0.064,0.448 -0.096,0.672 -0.032,0.192 -0.08,0.4 -0.144,0.624 l -0.432,1.872 c -0.032,0.032 -0.016,0.08 0.048,0.144 0.064,0.032 0.112,0.048 0.144,0.048 z m 36.1846,14.16 c -0.128,0 -0.24,0 -0.336,0 -0.096,0 -0.208,-0.016 -0.336,-0.048 -0.064,0 -0.144,-0.016 -0.24,-0.048 -0.064,0 -0.128,0 -0.192,0 -0.512,-0.032 -0.992,-0.128 -1.44,-0.288 -0.448,-0.16 -0.896,-0.352 -1.344,-0.576 -0.032,0 -0.064,0 -0.096,0 0,-0.032 -0.016,-0.048 -0.048,-0.048 -0.32,-0.16 -0.608,-0.352 -0.864,-0.576 -0.224,-0.224 -0.448,-0.448 -0.672,-0.672 -0.256,-0.32 -0.432,-0.624 -0.528,-0.912 -0.128,-0.256 -0.288,-0.528 -0.48,-0.816 -0.32,-0.352 -0.56,-0.8 -0.72,-1.344 -0.0961,-0.256 -0.1921,-0.512 -0.2881,-0.768 -0.096,-0.256 -0.176,-0.528 -0.24,-0.816 -0.032,-0.096 -0.064,-0.192 -0.096,-0.288 -0.032,-0.128 -0.08,-0.256 -0.144,-0.384 -0.064,-0.16 -0.128,-0.336 -0.192,-0.528 -0.032,-0.192 -0.08,-0.384 -0.144,-0.576 -0.032,-0.128 -0.08,-0.336 -0.144,-0.624 -0.032,-0.32 -0.048,-0.512 -0.048,-0.576 v -2.064 c 0.032,-0.192 0.064,-0.368 0.096,-0.528 0.032,-0.192 0.064,-0.384 0.096,-0.576 l 0.048,-0.048 c 0,0.032 0,0.048 0,0.048 0.032,0 0.048,0.016 0.048,0.048 0.032,0 0.048,0.016 0.048,0.048 0.032,0.032 0.048,0.016 0.048,-0.048 0,-0.192 -0.016,-0.352 -0.048,-0.48 0,-0.064 -0.016,-0.128 -0.048,-0.192 0,-0.064 0.064,-0.112 0.192,-0.144 0.032,0 0.048,-0.048 0.048,-0.144 l 0.432,-2.112 c 0.032,-0.16 0.064,-0.304 0.096,-0.432 0.032,-0.16 0.064,-0.304 0.096,-0.432 l 0.096,-0.528 c -0.032,0.064 -0.016,-0.048 0.0481,-0.336 0.096,-0.288 0.16,-0.48 0.192,-0.576 0.064,-0.16 0.144,-0.32 0.24,-0.48 0.128,-0.16 0.208,-0.272 0.24,-0.336 0.256,-0.288 0.496,-0.688 0.72,-1.2 l 0.912,-1.44 c 0.128,-0.128 0.192,-0.288 0.192,-0.48 -0.032,-0.16 0.016,-0.336 0.144,-0.528 0.096,-0.192 0.192,-0.384 0.288,-0.576 0.128,-0.192 0.256,-0.384 0.384,-0.576 0.16,-0.256 0.336,-0.512 0.528,-0.768 0.224,-0.288 0.432,-0.544 0.624,-0.768 0.064,-0.096 0.128,-0.192 0.192,-0.288 0.096,-0.096 0.208,-0.16 0.336,-0.192 0.064,0 0.112,-0.016 0.144,-0.048 0.032,-0.032 0.064,-0.064 0.096,-0.096 0.64,-0.672 1.36,-1.296 2.16,-1.872 0.064,-0.064 0.128,-0.128 0.192,-0.192 0.064,-0.064 0.128,-0.112 0.192,-0.144 0.16,-0.096 0.336,-0.144 0.528,-0.144 0.16,0 0.288,-0.016 0.384,-0.048 0.096,0 0.24,-0.032 0.432,-0.096 0.224,-0.064 0.4,-0.032 0.528,0.096 0.192,0.192 0.512,0.256 0.96,0.192 0.288,-0.032 0.528,0.128 0.72,0.48 0.064,0.096 0.112,0.192 0.144,0.288 0.064,0.096 0.144,0.176 0.24,0.24 0.096,0.192 0.224,0.368 0.384,0.528 0.192,0.16 0.352,0.32 0.48,0.48 l 0.624,0.864 c 0.064,0.096 0.128,0.208 0.192,0.336 0.096,0.096 0.176,0.192 0.24,0.288 0.16,0.16 0.256,0.32 0.288,0.48 0.064,0.16 0.112,0.272 0.144,0.336 0.064,0.032 0.112,0.176 0.144,0.432 0.032,0.128 0.032,0.208 0,0.24 0,0 0.064,0 0.192,0 0.128,0 0.192,0.08 0.192,0.24 0,0.352 -0.064,0.656 -0.192,0.912 -0.064,0.096 -0.128,0.144 -0.192,0.144 -0.032,0 -0.08,0.032 -0.144,0.096 -0.096,0.16 -0.208,0.32 -0.336,0.48 -0.096,0.16 -0.208,0.336 -0.336,0.528 -0.096,0.16 -0.224,0.304 -0.384,0.432 -0.128,0.128 -0.272,0.256 -0.432,0.384 -0.256,0.256 -0.56,0.352 -0.912,0.288 -0.288,0 -0.496,-0.016 -0.624,-0.048 -0.096,-0.032 -0.192,-0.064 -0.288,-0.096 -0.064,-0.064 -0.144,-0.112 -0.24,-0.144 -0.064,0 -0.128,-0.032 -0.192,-0.096 -0.032,-0.064 -0.064,-0.112 -0.096,-0.144 -0.032,-0.064 -0.08,-0.112 -0.144,-0.144 -0.16,-0.096 -0.288,-0.208 -0.384,-0.336 -0.096,-0.16 -0.176,-0.304 -0.24,-0.432 -0.032,-0.096 -0.048,-0.192 -0.048,-0.288 0,-0.096 0,-0.176 0,-0.24 -0.032,-0.192 -0.064,-0.384 -0.096,-0.576 0,-0.192 -0.032,-0.384 -0.096,-0.576 0,-0.064 -0.08,-0.096 -0.24,-0.096 -0.192,0.128 -0.384,0.256 -0.576,0.384 -0.192,0.128 -0.368,0.288 -0.528,0.48 l -1.488,1.776 c -0.096,0.096 -0.192,0.208 -0.288,0.336 -0.064,0.096 -0.128,0.192 -0.192,0.288 -0.128,0.16 -0.256,0.336 -0.384,0.528 -0.096,0.16 -0.224,0.32 -0.384,0.48 -0.064,0.064 -0.112,0.128 -0.144,0.192 -0.096,0.224 -0.208,0.432 -0.336,0.624 -0.096,0.192 -0.192,0.416 -0.288,0.672 -0.16,0.32 -0.304,0.672 -0.432,1.056 -0.096,0.352 -0.176,0.72 -0.24,1.104 -0.032,0.48 -0.128,0.96 -0.288,1.44 -0.032,0.16 -0.064,0.336 -0.096,0.528 -0.032,0.192 -0.064,0.384 -0.096,0.576 -0.032,0.288 -0.08,0.576 -0.144,0.864 -0.064,0.288 -0.08,0.592 -0.048,0.912 0.064,0.64 0.16,1.248 0.288,1.824 0.096,0.32 0.176,0.64 0.24,0.96 0.096,0.288 0.192,0.592 0.288,0.912 0.032,0.096 0.064,0.192 0.096,0.288 0.032,0.096 0.064,0.192 0.096,0.288 0.192,0.448 0.544,0.8 1.056,1.056 0.192,0.096 0.4,0.144 0.624,0.144 0.192,0 0.384,0.016 0.576,0.048 0.192,0 0.384,-0.016 0.576,-0.048 0.896,-0.096 1.728,-0.24 2.496,-0.432 0.352,-0.064 0.688,-0.16 1.008,-0.288 0.32,-0.128 0.64,-0.256 0.96,-0.384 0.256,-0.096 0.496,-0.24 0.72,-0.432 0.256,-0.192 0.512,-0.384 0.768,-0.576 0.288,-0.224 0.56,-0.448 0.816,-0.672 0.256,-0.224 0.512,-0.448 0.768,-0.672 0.256,-0.224 0.496,-0.464 0.72,-0.72 0.096,-0.096 0.24,-0.208 0.432,-0.336 0.096,-0.064 0.192,-0.128 0.288,-0.192 0.096,-0.064 0.176,-0.128 0.24,-0.192 0.16,-0.096 0.304,-0.192 0.432,-0.288 0.16,-0.096 0.336,-0.144 0.528,-0.144 0.096,-0.064 0.192,-0.096 0.288,-0.096 0.128,-0.032 0.24,-0.064 0.336,-0.096 0.288,-0.096 0.544,-0.096 0.768,0 0.096,0.032 0.192,0.064 0.288,0.096 0.096,0.032 0.192,0.08 0.288,0.144 0.256,0.16 0.496,0.416 0.72,0.768 0.16,0.384 0.24,0.72 0.24,1.008 v 0.288 c 0,0.416 -0.16,0.784 -0.48,1.104 -0.352,0.448 -0.72,0.8 -1.104,1.056 -0.224,0.128 -0.448,0.304 -0.672,0.528 -0.32,0.256 -0.656,0.528 -1.008,0.816 -0.32,0.288 -0.656,0.56 -1.008,0.816 l -0.192,0.192 c -0.096,0.064 -0.192,0.144 -0.288,0.24 -0.096,0.096 -0.208,0.176 -0.336,0.24 -0.224,0.224 -0.48,0.432 -0.768,0.624 -0.288,0.16 -0.576,0.32 -0.864,0.48 -0.288,0.128 -0.56,0.32 -0.816,0.576 -0.096,0.096 -0.192,0.192 -0.288,0.288 -0.096,0.096 -0.208,0.176 -0.336,0.24 -0.416,0.224 -0.896,0.448 -1.44,0.672 -0.032,0.032 -0.08,0.064 -0.144,0.096 -0.064,0.032 -0.128,0.064 -0.192,0.096 -0.192,0.096 -0.4,0.176 -0.624,0.24 -0.192,0.032 -0.384,0.064 -0.576,0.096 -0.256,0.032 -0.512,0.048 -0.768,0.048 -0.256,0.032 -0.512,0.08 -0.768,0.144 z m 26.316,0.576 c -0.192,0 -0.368,-0.064 -0.528,-0.192 -0.096,-0.096 -0.208,-0.176 -0.336,-0.24 -0.128,-0.064 -0.24,-0.144 -0.336,-0.24 -0.096,-0.064 -0.192,-0.128 -0.288,-0.192 -0.064,-0.096 -0.128,-0.176 -0.192,-0.24 -0.128,-0.192 -0.24,-0.384 -0.336,-0.576 -0.064,-0.224 -0.08,-0.448 -0.048,-0.672 0.064,-0.352 0.096,-0.688 0.096,-1.008 0.032,-0.352 0.064,-0.688 0.096,-1.008 0.032,-0.16 0.048,-0.32 0.048,-0.48 0.032,-0.192 0.048,-0.368 0.048,-0.528 0,-0.384 0,-0.768 0,-1.152 0.032,-0.384 0.08,-0.768 0.144,-1.152 v -0.096 c 0.032,-0.992 0.064,-1.968 0.096,-2.928 0.064,-0.992 0.096,-1.984 0.096,-2.976 -0.032,-0.736 -0.048,-1.472 -0.048,-2.208 0,-0.736 0,-1.456 0,-2.16 0,-0.352 0,-0.688 0,-1.008 0.032,-0.32 0.016,-0.64 -0.048,-0.96 -0.032,-0.544 -0.064,-1.072 -0.096,-1.584 0,-0.512 0,-1.024 0,-1.536 0,-0.096 -0.016,-0.192 -0.048,-0.288 0,-0.096 0,-0.192 0,-0.288 -0.032,-0.128 -0.048,-0.256 -0.048,-0.384 0,-0.16 -0.016,-0.304 -0.048,-0.432 0,-0.16 -0.016,-0.32 -0.048,-0.48 0,-0.16 -0.016,-0.304 -0.048,-0.432 v -0.336 c -0.032,-0.352 -0.064,-0.672 -0.096,-0.96 -0.032,-0.32 -0.08,-0.64 -0.144,-0.96 -0.032,-0.256 -0.064,-0.528 -0.096,-0.816 0,-0.288 0,-0.576 0,-0.864 0,-0.192 0.064,-0.336 0.192,-0.432 0.064,-0.064 0.096,-0.144 0.096,-0.24 0.064,-0.128 0.096,-0.24 0.096,-0.336 0.096,-0.256 0.224,-0.416 0.384,-0.48 0.096,-0.064 0.176,-0.112 0.24,-0.144 0.096,-0.064 0.192,-0.08 0.288,-0.048 0.16,0 0.256,-0.048 0.288,-0.144 0.064,-0.032 0.112,-0.064 0.144,-0.096 0.032,-0.064 0.064,-0.096 0.096,-0.096 0.16,0 0.304,-0.016 0.432,-0.048 0.16,-0.032 0.32,-0.016 0.48,0.048 0.192,0.064 0.352,0.096 0.48,0.096 0.16,0.032 0.272,0.096 0.336,0.192 0.064,0.064 0.128,0.096 0.192,0.096 0.16,0.032 0.272,0.144 0.336,0.336 0.064,0.064 0.096,0.144 0.096,0.24 0.032,0.064 0.064,0.112 0.096,0.144 0.16,0.16 0.208,0.352 0.144,0.576 -0.064,0.352 -0.064,0.704 0,1.056 0.032,0.096 0.032,0.192 0,0.288 0,0.096 0.016,0.192 0.048,0.288 0,0.224 0,0.448 0,0.672 0.032,0.192 0.064,0.416 0.096,0.672 0.032,0.128 0.048,0.256 0.048,0.384 0,0.096 0,0.224 0,0.384 0,0.224 0,0.48 0,0.768 0,0.256 0.016,0.512 0.048,0.768 0.032,0.064 0.048,0.176 0.048,0.336 0,0.224 0,0.448 0,0.672 0.032,0.224 0.064,0.448 0.096,0.672 0.096,0.48 0.144,0.944 0.144,1.392 -0.032,0.224 -0.032,0.464 0,0.72 0.032,0.256 0.048,0.512 0.048,0.768 0,0.064 0.032,0.096 0.096,0.096 0.064,0 0.112,-0.016 0.144,-0.048 0.064,-0.032 0.16,-0.112 0.288,-0.24 l 2.304,-2.304 c 0.48,-0.544 1.008,-1.024 1.584,-1.44 0.288,-0.224 0.56,-0.448 0.816,-0.672 0.256,-0.256 0.496,-0.512 0.72,-0.768 0.32,-0.352 0.624,-0.704 0.912,-1.056 0.32,-0.352 0.64,-0.704 0.96,-1.056 0.16,-0.16 0.304,-0.336 0.432,-0.528 0.16,-0.192 0.304,-0.384 0.432,-0.576 0.192,-0.224 0.368,-0.432 0.528,-0.624 0.192,-0.224 0.4,-0.432 0.624,-0.624 0.096,-0.064 0.176,-0.128 0.24,-0.192 0.096,-0.096 0.208,-0.16 0.336,-0.192 0.032,0 0.048,0 0.048,0 0.032,-0.032 0.048,-0.048 0.048,-0.048 0.32,-0.288 0.64,-0.336 0.96,-0.144 0.096,0.064 0.24,0.096 0.432,0.096 0.256,0 0.48,0.096 0.672,0.288 0.064,0.032 0.112,0.064 0.144,0.096 0.064,0 0.112,0.016 0.144,0.048 h 0.48 c 0.192,0 0.288,0.032 0.288,0.096 0.032,0.032 0.032,0.128 0,0.288 -0.064,0.096 -0.032,0.192 0.096,0.288 0.16,0.032 0.208,0.128 0.144,0.288 -0.032,0.064 0,0.144 0.096,0.24 0.096,0.064 0.096,0.144 0,0.24 -0.16,0.256 -0.256,0.512 -0.288,0.768 -0.064,0.16 -0.144,0.32 -0.24,0.48 -0.064,0.128 -0.176,0.272 -0.336,0.432 -0.384,0.32 -0.736,0.688 -1.056,1.104 -0.32,0.384 -0.656,0.784 -1.008,1.2 l -0.288,0.288 c -0.32,0.288 -0.624,0.592 -0.912,0.912 -0.256,0.32 -0.512,0.64 -0.768,0.96 -0.352,0.416 -0.736,0.832 -1.152,1.248 -0.384,0.384 -0.768,0.768 -1.152,1.152 -0.192,0.192 -0.336,0.32 -0.432,0.384 -0.16,0.128 -0.32,0.272 -0.48,0.432 -0.16,0.16 -0.32,0.336 -0.48,0.528 -0.032,0.064 -0.096,0.128 -0.192,0.192 -0.064,0.064 -0.128,0.128 -0.192,0.192 -0.224,0.224 -0.448,0.464 -0.672,0.72 -0.224,0.224 -0.464,0.448 -0.72,0.672 0,0.032 -0.016,0.064 -0.048,0.096 0,0 0,0.016 0,0.048 0,0.032 -0.016,0.064 -0.048,0.096 0,0.032 0.016,0.064 0.048,0.096 0.032,0.096 0.112,0.208 0.24,0.336 l 1.392,1.296 c 0.288,0.224 0.56,0.48 0.816,0.768 0.256,0.256 0.512,0.512 0.768,0.768 l 0.48,0.576 c 0.064,0.064 0.128,0.144 0.192,0.24 0.064,0.064 0.128,0.128 0.192,0.192 0.352,0.288 0.704,0.576 1.056,0.864 0.352,0.288 0.688,0.576 1.008,0.864 l 0.72,0.576 c 0.384,0.32 0.8,0.624 1.248,0.912 0.448,0.288 0.88,0.56 1.296,0.816 0.224,0.128 0.432,0.256 0.624,0.384 0.224,0.096 0.448,0.192 0.672,0.288 0.416,0.192 0.752,0.528 1.008,1.008 0.032,0.032 0.064,0.096 0.096,0.192 0.032,0.064 0.064,0.128 0.096,0.192 0.16,0.352 0.224,0.688 0.192,1.008 0,0.256 -0.032,0.432 -0.096,0.528 l -0.144,0.384 c -0.032,0.128 -0.096,0.272 -0.192,0.432 -0.064,0.128 -0.176,0.24 -0.336,0.336 -0.064,0.032 -0.128,0.112 -0.192,0.24 -0.128,0.128 -0.24,0.192 -0.336,0.192 -0.16,0.032 -0.336,0.064 -0.528,0.096 -0.16,0.032 -0.32,0.064 -0.48,0.096 -0.128,0.032 -0.256,0.048 -0.384,0.048 -0.128,0 -0.256,-0.016 -0.384,-0.048 -0.032,-0.032 -0.08,-0.048 -0.144,-0.048 -0.128,-0.032 -0.256,-0.064 -0.384,-0.096 -0.096,-0.032 -0.192,-0.064 -0.288,-0.096 -0.096,-0.064 -0.192,-0.128 -0.288,-0.192 -0.064,-0.096 -0.128,-0.176 -0.192,-0.24 -0.064,-0.064 -0.144,-0.128 -0.24,-0.192 -0.096,-0.064 -0.192,-0.112 -0.288,-0.144 l -0.72,-0.432 c -0.032,-0.064 -0.096,-0.112 -0.192,-0.144 -0.064,-0.064 -0.128,-0.112 -0.192,-0.144 -0.128,-0.064 -0.208,-0.112 -0.24,-0.144 -0.128,-0.16 -0.288,-0.288 -0.48,-0.384 -0.16,-0.096 -0.32,-0.208 -0.48,-0.336 -0.256,-0.224 -0.528,-0.432 -0.816,-0.624 -0.256,-0.224 -0.512,-0.448 -0.768,-0.672 -0.544,-0.48 -1.088,-0.96 -1.632,-1.44 -0.512,-0.48 -1.024,-0.976 -1.536,-1.488 -0.384,-0.384 -0.768,-0.768 -1.152,-1.152 -0.384,-0.384 -0.8,-0.768 -1.248,-1.152 -0.128,-0.096 -0.256,-0.192 -0.384,-0.288 -0.096,-0.096 -0.224,-0.192 -0.384,-0.288 -0.032,-0.064 -0.08,-0.08 -0.144,-0.048 -0.032,0.032 -0.048,0.08 -0.048,0.144 -0.032,0.032 -0.048,0.112 -0.048,0.24 v 5.184 c 0,0.32 0,0.656 0,1.008 0,0.32 -0.032,0.656 -0.096,1.008 v 0.72 c -0.032,0.224 -0.048,0.448 -0.048,0.672 0.032,0.224 0.032,0.464 0,0.72 v 0.72 c -0.032,0.096 -0.064,0.192 -0.096,0.288 -0.032,0.096 -0.08,0.192 -0.144,0.288 -0.096,0.096 -0.176,0.208 -0.24,0.336 -0.064,0.096 -0.128,0.192 -0.192,0.288 -0.064,0.064 -0.128,0.096 -0.192,0.096 -0.128,0.032 -0.256,0.096 -0.384,0.192 -0.096,0.096 -0.224,0.176 -0.384,0.24 -0.224,0.192 -0.496,0.288 -0.816,0.288 -0.064,-0.032 -0.144,-0.032 -0.24,0 -0.064,0.032 -0.144,0.048 -0.24,0.048 z"
     fill="#000000"
     id="path5" />
</svg>
